<svg width="38" height="28" viewBox="0 0 38 28" fill="none" xmlns="http://www.w3.org/2000/svg">
<path d="M9.0798 10.5981L9.25785 10.5168C8.32016 11.3066 7.16684 12.7251 6.40717 13.7132C5.17653 15.3034 4.46314 17.3586 3.95323 19.3788C7.63901 15.9096 11.5762 14.4666 12.5069 14.4362C12.5189 14.4381 12.7883 16.803 11.8522 19.1072C10.8651 21.5222 8.66524 23.8732 8.66524 23.8732C9.68045 23.7119 10.6736 23.4604 11.6238 23.1023C13.252 22.4932 14.8311 21.5536 15.8585 20.073C16.313 19.4162 16.9787 17.6697 16.922 17.911C16.7398 19.6372 17.178 21.4236 17.7898 23.0763C18.1452 24.0477 18.5493 24.9946 19.1375 25.8426C19.6386 26.5696 20.2439 27.2144 20.8864 27.7948L21.4101 28C21.4047 27.964 19.3247 22.5678 21.4334 19.0386C25.2701 12.622 32.5842 15.7077 32.5842 15.7077C32.5842 15.7077 31.224 12.0421 26.2552 11.4487C36.5641 7.60259 36.0819 14.2245 36.0819 14.2245C36.0819 14.2245 39.2628 11.7485 37.4321 7.68072C35.7745 4.00031 31.5875 4.16939 30.727 4.24498C29.7162 3.35738 22.0467 -3.40174 14.3613 2.19907C8.97618 6.12139 3.79167 8.03632 0.797973 8.90022C-0.120524 9.16528 -0.314002 10.3792 0.576469 10.7205C1.34017 11.0131 2.12058 11.235 2.9073 11.3829C5.03193 11.7869 7.17614 11.4871 9.0798 10.5981ZM25.1584 5.32045C25.5171 5.33453 25.8813 5.34712 26.2437 5.35497C26.3089 5.66453 26.1576 5.96434 25.8872 6.03873C25.6016 6.11732 25.2815 5.91536 25.1811 5.58288C25.1594 5.49178 25.1497 5.40341 25.1584 5.32045ZM23.1108 6.01268C23.0345 5.75978 23.0093 5.50889 23.0304 5.26141C23.2414 5.25169 23.4524 5.24197 23.6574 5.25002C23.873 5.25518 24.0845 5.26667 24.3016 5.27701C24.2907 5.44638 24.3055 5.62518 24.3594 5.8037C24.5901 6.5676 25.3801 7.02173 26.1232 6.81729C26.7778 6.63718 27.1729 6.00725 27.1059 5.33805C27.2551 5.32921 27.4008 5.32661 27.5486 5.31292C27.597 6.29332 26.9465 7.21389 25.9174 7.49701C24.7114 7.82845 23.4583 7.16336 23.1108 6.01268Z" fill="#35F2BC"/>
</svg>
